<svg width="42" height="34" viewBox="0 0 42 34" fill="none" xmlns="http://www.w3.org/2000/svg">
<path d="M4.33332 33.6667C3.18749 33.6667 2.20693 33.2591 1.39166 32.4438C0.576379 31.6285 0.168045 30.6473 0.166656 29.5V4.50004C0.166656 3.35421 0.57499 2.37365 1.39166 1.55837C2.20832 0.743096 3.18888 0.334763 4.33332 0.333374H37.6667C38.8125 0.333374 39.7937 0.741707 40.6104 1.55837C41.4271 2.37504 41.8347 3.3556 41.8333 4.50004V29.5C41.8333 30.6459 41.4257 31.6271 40.6104 32.4438C39.7951 33.2605 38.8139 33.6681 37.6667 33.6667H4.33332ZM21 19.0834L37.6667 8.66671V4.50004L21 14.9167L4.33332 4.50004V8.66671L21 19.0834Z" fill="black"/>
</svg>
