<svg width="42" height="42" viewBox="0 0 42 42" fill="none" xmlns="http://www.w3.org/2000/svg">
<path d="M35.6875 6.22913C33.7775 4.29981 31.5024 2.7701 28.9951 1.72923C26.4877 0.688366 23.7981 0.15717 21.0833 0.166628C9.70831 0.166628 0.43748 9.43746 0.43748 20.8125C0.43748 24.4583 1.39581 28 3.18748 31.125L0.270813 41.8333L11.2083 38.9583C14.2291 40.6041 17.625 41.4791 21.0833 41.4791C32.4583 41.4791 41.7291 32.2083 41.7291 20.8333C41.7291 15.3125 39.5833 10.125 35.6875 6.22913ZM21.0833 37.9791C18 37.9791 14.9791 37.1458 12.3333 35.5833L11.7083 35.2083L5.20831 36.9166L6.93748 30.5833L6.52081 29.9375C4.80778 27.202 3.89819 24.04 3.89581 20.8125C3.89581 11.3541 11.6041 3.64579 21.0625 3.64579C25.6458 3.64579 29.9583 5.43746 33.1875 8.68746C34.7864 10.2791 36.0535 12.1722 36.9154 14.2571C37.7772 16.342 38.2167 18.5773 38.2083 20.8333C38.25 30.2916 30.5416 37.9791 21.0833 37.9791ZM30.5 25.1458C29.9791 24.8958 27.4375 23.6458 26.9791 23.4583C26.5 23.2916 26.1666 23.2083 25.8125 23.7083C25.4583 24.2291 24.4791 25.3958 24.1875 25.7291C23.8958 26.0833 23.5833 26.125 23.0625 25.8541C22.5416 25.6041 20.875 25.0416 18.9166 23.2916C17.375 21.9166 16.3541 20.2291 16.0416 19.7083C15.75 19.1875 16 18.9166 16.2708 18.6458C16.5 18.4166 16.7916 18.0416 17.0416 17.75C17.2916 17.4583 17.3958 17.2291 17.5625 16.8958C17.7291 16.5416 17.6458 16.25 17.5208 16C17.3958 15.75 16.3541 13.2083 15.9375 12.1666C15.5208 11.1666 15.0833 11.2916 14.7708 11.2708H13.7708C13.4166 11.2708 12.875 11.3958 12.3958 11.9166C11.9375 12.4375 10.6041 13.6875 10.6041 16.2291C10.6041 18.7708 12.4583 21.2291 12.7083 21.5625C12.9583 21.9166 16.3541 27.125 21.5208 29.3541C22.75 29.8958 23.7083 30.2083 24.4583 30.4375C25.6875 30.8333 26.8125 30.7708 27.7083 30.6458C28.7083 30.5 30.7708 29.3958 31.1875 28.1875C31.625 26.9791 31.625 25.9583 31.4791 25.7291C31.3333 25.5 31.0208 25.3958 30.5 25.1458Z" fill="black"/>
</svg>
