<svg width="42" height="42" viewBox="0 0 42 42" fill="none" xmlns="http://www.w3.org/2000/svg">
<path d="M21 0.166626C9.49999 0.166626 0.166656 9.49996 0.166656 21C0.166656 32.5 9.49999 41.8333 21 41.8333C32.5 41.8333 41.8333 32.5 41.8333 21C41.8333 9.49996 32.5 0.166626 21 0.166626ZM30.6667 14.3333C30.3542 17.625 29 25.625 28.3125 29.3125C28.0208 30.875 27.4375 31.3958 26.8958 31.4583C25.6875 31.5625 24.7708 30.6666 23.6042 29.8958C21.7708 28.6875 20.7292 27.9375 18.9583 26.7708C16.8958 25.4166 18.2292 24.6666 19.4167 23.4583C19.7292 23.1458 25.0625 18.2916 25.1667 17.8541C25.1811 17.7879 25.1792 17.7191 25.161 17.6537C25.1429 17.5884 25.1091 17.5284 25.0625 17.4791C24.9375 17.375 24.7708 17.4166 24.625 17.4375C24.4375 17.4791 21.5208 19.4166 15.8333 23.25C15 23.8125 14.25 24.1041 13.5833 24.0833C12.8333 24.0625 11.4167 23.6666 10.3542 23.3125C9.04166 22.8958 8.02082 22.6666 8.10416 21.9375C8.14582 21.5625 8.66666 21.1875 9.64582 20.7916C15.7292 18.1458 19.7708 16.3958 21.7917 15.5625C27.5833 13.1458 28.7708 12.7291 29.5625 12.7291C29.7292 12.7291 30.125 12.7708 30.375 12.9791C30.5833 13.1458 30.6458 13.375 30.6667 13.5416C30.6458 13.6666 30.6875 14.0416 30.6667 14.3333Z" fill="black"/>
</svg>
