<svg width="50" height="50" viewBox="0 0 50 50" fill="none" xmlns="http://www.w3.org/2000/svg">
<path d="M8.875 8.875C6.25 11.525 6.25 15.7625 6.25 24.25V25.75C6.25 34.225 6.25 38.4625 8.875 41.125C11.525 43.75 15.7625 43.75 24.25 43.75H25.75C34.225 43.75 38.4625 43.75 41.125 41.125C43.75 38.475 43.75 34.2375 43.75 25.75V24.25C43.75 15.775 43.75 11.5375 41.125 8.875C38.475 6.25 34.2375 6.25 25.75 6.25H24.25C15.775 6.25 11.5375 6.25 8.875 8.875ZM12.575 17.6625H16.875C17.0125 24.8125 20.1625 27.8375 22.6625 28.4625V17.6625H26.7V23.825C29.1625 23.5625 31.7625 20.75 32.6375 17.65H36.6625C36.3344 19.2548 35.6789 20.7746 34.7369 22.1145C33.7948 23.4545 32.5865 24.5857 31.1875 25.4375C32.7488 26.2143 34.1277 27.3134 35.233 28.6622C36.3384 30.0111 37.1451 31.579 37.6 33.2625H33.1625C32.2125 30.3 29.8375 28 26.7 27.6875V33.2625H26.2C17.65 33.2625 12.775 27.4125 12.575 17.6625Z" fill="black"/>
</svg>
