<svg width="30" height="27" viewBox="0 0 30 27" fill="none" xmlns="http://www.w3.org/2000/svg">
<path d="M26.3334 0.010376H24.9167V18.19H26.3334C27.0848 18.19 27.8055 17.8954 28.3368 17.3708C28.8682 16.8463 29.1667 16.1349 29.1667 15.3932V2.80725C29.1667 2.06547 28.8682 1.35407 28.3368 0.82956C27.8055 0.305045 27.0848 0.010376 26.3334 0.010376ZM3.66671 18.19H13.5834L11.9939 22.9C11.852 23.3203 11.8134 23.7679 11.8811 24.2059C11.9489 24.6439 12.1211 25.0597 12.3835 25.4191C12.6459 25.7785 12.9911 26.0713 13.3906 26.2732C13.7901 26.4752 14.2325 26.5805 14.6813 26.5806H15L22.0834 18.976V0.010376H6.50004L0.922624 12.1054L0.833374 12.5152V15.3932C0.833374 16.1349 1.13188 16.8463 1.66324 17.3708C2.19459 17.8954 2.91526 18.19 3.66671 18.19Z" fill="black"/>
</svg>
