<svg width="23" height="24" viewBox="0 0 23 24" fill="none" xmlns="http://www.w3.org/2000/svg">
<path d="M16.2917 13.8608C16.5458 13.8608 16.7896 13.7611 16.9693 13.5837C17.149 13.4063 17.25 13.1656 17.25 12.9148C17.25 12.6639 17.149 12.4232 16.9693 12.2458C16.7896 12.0684 16.5458 11.9688 16.2917 11.9688C16.0375 11.9688 15.7937 12.0684 15.614 12.2458C15.4343 12.4232 15.3333 12.6639 15.3333 12.9148C15.3333 13.1656 15.4343 13.4063 15.614 13.5837C15.7937 13.7611 16.0375 13.8608 16.2917 13.8608ZM16.2917 17.6448C16.5458 17.6448 16.7896 17.5451 16.9693 17.3677C17.149 17.1903 17.25 16.9496 17.25 16.6988C17.25 16.4479 17.149 16.2072 16.9693 16.0298C16.7896 15.8524 16.5458 15.7528 16.2917 15.7528C16.0375 15.7528 15.7937 15.8524 15.614 16.0298C15.4343 16.2072 15.3333 16.4479 15.3333 16.6988C15.3333 16.9496 15.4343 17.1903 15.614 17.3677C15.7937 17.5451 16.0375 17.6448 16.2917 17.6448ZM12.4583 12.9148C12.4583 13.1656 12.3574 13.4063 12.1776 13.5837C11.9979 13.7611 11.7542 13.8608 11.5 13.8608C11.2458 13.8608 11.0021 13.7611 10.8224 13.5837C10.6426 13.4063 10.5417 13.1656 10.5417 12.9148C10.5417 12.6639 10.6426 12.4232 10.8224 12.2458C11.0021 12.0684 11.2458 11.9688 11.5 11.9688C11.7542 11.9688 11.9979 12.0684 12.1776 12.2458C12.3574 12.4232 12.4583 12.6639 12.4583 12.9148ZM12.4583 16.6988C12.4583 16.9496 12.3574 17.1903 12.1776 17.3677C11.9979 17.5451 11.7542 17.6448 11.5 17.6448C11.2458 17.6448 11.0021 17.5451 10.8224 17.3677C10.6426 17.1903 10.5417 16.9496 10.5417 16.6988C10.5417 16.4479 10.6426 16.2072 10.8224 16.0298C11.0021 15.8524 11.2458 15.7528 11.5 15.7528C11.7542 15.7528 11.9979 15.8524 12.1776 16.0298C12.3574 16.2072 12.4583 16.4479 12.4583 16.6988ZM6.70833 13.8608C6.9625 13.8608 7.20625 13.7611 7.38598 13.5837C7.5657 13.4063 7.66667 13.1656 7.66667 12.9148C7.66667 12.6639 7.5657 12.4232 7.38598 12.2458C7.20625 12.0684 6.9625 11.9688 6.70833 11.9688C6.45417 11.9688 6.21041 12.0684 6.03069 12.2458C5.85097 12.4232 5.75 12.6639 5.75 12.9148C5.75 13.1656 5.85097 13.4063 6.03069 13.5837C6.21041 13.7611 6.45417 13.8608 6.70833 13.8608ZM6.70833 17.6448C6.9625 17.6448 7.20625 17.5451 7.38598 17.3677C7.5657 17.1903 7.66667 16.9496 7.66667 16.6988C7.66667 16.4479 7.5657 16.2072 7.38598 16.0298C7.20625 15.8524 6.9625 15.7528 6.70833 15.7528C6.45417 15.7528 6.21041 15.8524 6.03069 16.0298C5.85097 16.2072 5.75 16.4479 5.75 16.6988C5.75 16.9496 5.85097 17.1903 6.03069 17.3677C6.21041 17.5451 6.45417 17.6448 6.70833 17.6448Z" fill="black"/>
<path fill-rule="evenodd" clip-rule="evenodd" d="M6.70831 2.27222C6.89894 2.27222 7.08175 2.34697 7.21654 2.48002C7.35134 2.61308 7.42706 2.79355 7.42706 2.98172V3.70352C8.06148 3.69122 8.7601 3.69122 9.52869 3.69122H13.4703C14.2399 3.69122 14.9385 3.69122 15.5729 3.70352V2.98172C15.5729 2.79355 15.6486 2.61308 15.7834 2.48002C15.9182 2.34697 16.101 2.27222 16.2916 2.27222C16.4823 2.27222 16.6651 2.34697 16.7999 2.48002C16.9347 2.61308 17.0104 2.79355 17.0104 2.98172V3.76406C17.2596 3.78298 17.4953 3.80663 17.7186 3.83596C18.8418 3.98542 19.7512 4.29949 20.469 5.0071C21.1859 5.71566 21.504 6.61341 21.6554 7.72212C21.8021 8.80056 21.8021 10.177 21.8021 11.9157V13.9137C21.8021 15.6524 21.8021 17.0298 21.6554 18.1073C21.504 19.216 21.1859 20.1138 20.469 20.8223C19.7512 21.5299 18.8418 21.844 17.7186 21.9935C16.6261 22.1382 15.2317 22.1382 13.4703 22.1382H9.5306C7.76919 22.1382 6.37385 22.1382 5.28231 21.9935C4.15914 21.844 3.24969 21.5299 2.53189 20.8223C1.81506 20.1138 1.49689 19.216 1.34548 18.1073C1.19885 17.0289 1.19885 15.6524 1.19885 13.9137V11.9157C1.19885 10.177 1.19885 8.79962 1.34548 7.72212C1.49689 6.61341 1.81506 5.71566 2.53189 5.0071C3.24969 4.29949 4.15914 3.98542 5.28231 3.83596C5.5056 3.80663 5.74231 3.78298 5.99052 3.76406V2.98172C5.99052 2.79371 6.06611 2.61339 6.2007 2.48036C6.33528 2.34733 6.51785 2.27247 6.70831 2.27222ZM5.47206 5.24266C4.50894 5.37037 3.9531 5.61065 3.54773 6.01081C3.14235 6.41097 2.89894 6.95965 2.76956 7.91132C2.74752 8.07214 2.72931 8.24242 2.71398 8.42122H20.286C20.2706 8.24148 20.2524 8.07214 20.2304 7.91038C20.101 6.95965 19.8576 6.41097 19.4522 6.01081C19.0469 5.61065 18.491 5.37037 17.5269 5.24266C16.5427 5.11211 15.2442 5.11022 13.4166 5.11022H9.58331C7.75577 5.11022 6.45819 5.11211 5.47206 5.24266ZM2.63539 11.9687C2.63539 11.1608 2.63539 10.458 2.64785 9.84022H20.3521C20.3646 10.458 20.3646 11.1608 20.3646 11.9687V13.8607C20.3646 15.6647 20.3626 16.9466 20.2304 17.9191C20.101 18.8698 19.8576 19.4185 19.4522 19.8186C19.0469 20.2188 18.491 20.4591 17.5269 20.5868C16.5427 20.7173 15.2442 20.7192 13.4166 20.7192H9.58331C7.75577 20.7192 6.45819 20.7173 5.47206 20.5868C4.50894 20.4591 3.9531 20.2188 3.54773 19.8186C3.14235 19.4185 2.89894 18.8698 2.76956 17.9181C2.63731 16.9466 2.63539 15.6647 2.63539 13.8607V11.9687Z" fill="black"/>
</svg>
