<svg width="34" height="35" viewBox="0 0 34 35" fill="none" xmlns="http://www.w3.org/2000/svg">
<path d="M5.66671 30.1822H7.08337V12.0025H5.66671C4.91526 12.0025 4.19459 12.2972 3.66324 12.8217C3.13188 13.3462 2.83337 14.0576 2.83337 14.7994V27.3853C2.83337 28.1271 3.13188 28.8385 3.66324 29.363C4.19459 29.8875 4.91526 30.1822 5.66671 30.1822ZM28.3334 12.0025H18.4167L20.0062 7.29262C20.148 6.87227 20.1867 6.42467 20.1189 5.9867C20.0512 5.54872 19.879 5.1329 19.6166 4.77347C19.3542 4.41405 19.009 4.12131 18.6095 3.91936C18.21 3.71742 17.7676 3.61205 17.3188 3.61194H17L9.91671 11.2166V30.1822H25.5L31.042 18.1613L31.1667 17.5963V14.7994C31.1667 14.0576 30.8682 13.3462 30.3368 12.8217C29.8055 12.2972 29.0848 12.0025 28.3334 12.0025Z" fill="black"/>
</svg>
