<svg width="21" height="28" viewBox="0 0 21 28" fill="none" xmlns="http://www.w3.org/2000/svg">
<path d="M-5.88952e-05 17.1257C-5.88952e-05 16.1986 0.109608 15.2854 0.328941 14.3859C0.548275 13.4876 0.889524 12.6285 1.35269 11.8085C1.42619 11.6818 1.49911 11.5511 1.57144 11.4164C1.64494 11.2816 1.73186 11.1561 1.83219 11.0398C1.91946 10.9273 2.02609 10.8308 2.14719 10.7548C2.27733 10.6855 2.42285 10.6493 2.57069 10.6493C2.71853 10.6493 2.86406 10.6855 2.99419 10.7548C3.12598 10.8218 3.23536 10.925 3.30919 11.0519L5.12744 13.9817C5.21027 14.1164 5.31936 14.2201 5.45469 14.2926C5.59828 14.368 5.75763 14.4094 5.92019 14.4136C6.05976 14.4197 6.19872 14.392 6.32499 14.333C6.45125 14.274 6.56101 14.1854 6.64469 14.075C6.76437 13.9194 6.84736 13.7394 6.88763 13.5482C6.9279 13.3569 6.92441 13.1592 6.87744 12.9694C6.84774 12.8574 6.8067 12.7486 6.75494 12.6446C6.39468 11.8887 6.08827 11.1088 5.83794 10.3108C5.59633 9.49981 5.47664 8.65819 5.48269 7.81287C5.48269 6.67965 5.67402 5.68577 6.05669 4.83124C6.43936 3.97557 6.97252 3.24196 7.65619 2.63044C8.33869 2.02006 9.13611 1.52543 10.0484 1.14653C10.9895 0.758882 11.9707 0.473885 12.9744 0.296613C13.0997 0.274229 13.2285 0.279669 13.3514 0.312537C13.4743 0.345406 13.5882 0.404878 13.6849 0.486636C13.8949 0.665142 13.9999 0.885107 13.9999 1.14653C13.9999 2.49627 14.2321 3.78267 14.6964 5.00572C15.1674 6.23926 15.817 7.39893 16.6249 8.44859L18.1422 10.4041C18.6532 11.0605 19.1228 11.7446 19.5509 12.4563C19.9791 13.1669 20.3256 13.9045 20.5904 14.6692C20.8541 15.4351 20.9906 16.2539 20.9999 17.1257C20.9999 18.0885 20.8815 19.0242 20.6447 19.9329C20.4117 20.8281 20.0623 21.6898 19.6052 22.4964C19.1502 23.298 18.6124 24.027 17.9917 24.6834C17.3722 25.3399 16.6704 25.9111 15.8864 26.3971C15.1024 26.8831 14.2595 27.2568 13.3577 27.5182C12.4559 27.7796 11.5033 27.9144 10.4999 27.9225C9.5333 27.9267 8.571 27.7947 7.64219 27.5303C6.75467 27.2761 5.90803 26.8992 5.12744 26.4109C4.35367 25.9261 3.64209 25.3507 3.00819 24.6972C2.36993 24.0408 1.82693 23.3001 1.39469 22.4964C0.954997 21.6833 0.610929 20.8232 0.369191 19.9329C0.120832 19.0174 -0.00333515 18.0734 -5.88952e-05 17.1257Z" fill="black"/>
</svg>
