<svg width="31" height="27" viewBox="0 0 31 27" fill="none" xmlns="http://www.w3.org/2000/svg">
<path d="M29.5478 5.38363C29.0897 4.33645 28.4291 3.38752 27.603 2.58997C26.7763 1.79002 25.8016 1.15431 24.7319 0.717413C23.6227 0.262543 22.433 0.0297302 21.2319 0.032495C19.5469 0.032495 17.9028 0.487983 16.4741 1.34835C16.1323 1.55416 15.8076 1.78022 15.5 2.02652C15.1924 1.78022 14.8677 1.55416 14.5259 1.34835C13.0972 0.487983 11.4531 0.032495 9.76807 0.032495C8.55469 0.032495 7.37891 0.261926 6.26807 0.717413C5.19482 1.15603 4.22754 1.78697 3.39697 2.58997C2.56979 3.38662 1.90902 4.33578 1.45215 5.38363C0.977051 6.47343 0.734375 7.6307 0.734375 8.82172C0.734375 9.94525 0.966797 11.116 1.42822 12.307C1.81445 13.3024 2.36816 14.3348 3.07568 15.3774C4.19678 17.0272 5.73828 18.748 7.65234 20.4923C10.8242 23.3838 13.9653 25.3812 14.0986 25.4622L14.9087 25.975C15.2676 26.2011 15.729 26.2011 16.0879 25.975L16.8979 25.4622C17.0312 25.3778 20.1689 23.3838 23.3442 20.4923C25.2583 18.748 26.7998 17.0272 27.9209 15.3774C28.6284 14.3348 29.1855 13.3024 29.5684 12.307C30.0298 11.116 30.2622 9.94525 30.2622 8.82172C30.2656 7.6307 30.0229 6.47343 29.5478 5.38363Z" fill="black"/>
</svg>
