<svg width="33" height="58" viewBox="0 0 33 58" fill="none" xmlns="http://www.w3.org/2000/svg">
<path d="M1.49526 56.0469C0.698509 55.2499 0.250916 54.1691 0.250916 53.0422C0.250916 51.9152 0.698509 50.8344 1.49526 50.0374L22.5328 28.9999L1.49526 7.96242C0.721088 7.16086 0.292713 6.0873 0.302395 4.97296C0.31208 3.85862 0.759045 2.79267 1.54703 2.00468C2.33501 1.2167 3.40097 0.769737 4.5153 0.760056C5.62964 0.75037 6.7032 1.17875 7.50476 1.95292L31.547 25.9952C32.3438 26.7922 32.7914 27.873 32.7914 28.9999C32.7914 30.1269 32.3438 31.2077 31.547 32.0047L7.50476 56.0469C6.70777 56.8437 5.62696 57.2913 4.50001 57.2913C3.37306 57.2913 2.29225 56.8437 1.49526 56.0469Z" fill="black"/>
</svg>
